<svg xmlns="http://www.w3.org/2000/svg" version="1.1" xmlns:xlink="http://www.w3.org/1999/xlink" xmlns:svgjs="http://svgjs.dev/svgjs" width="1500" height="1500" viewBox="0 0 1500 1500"><rect width="1500" height="1500" fill="#ba3b0a"></rect><g transform="matrix(0.6666666666666666,0,0,0.6666666666666666,249.39393939393938,634.5881279902901)"><svg viewBox="0 0 396 92" data-background-color="#ba3b0a" preserveAspectRatio="xMidYMid meet" height="348" width="1500" xmlns="http://www.w3.org/2000/svg" xmlns:xlink="http://www.w3.org/1999/xlink"><g id="tight-bounds" transform="matrix(1,0,0,1,0.2400000000000091,-0.23322316856331327)"><svg viewBox="0 0 395.52 92.46644633712661" height="92.46644633712661" width="395.52"><g><svg viewBox="0 0 544.5813009103088 127.31466837789661" height="92.46644633712661" width="395.52"><g transform="matrix(1,0,0,1,149.06130091030877,17.5955873083779)"><svg viewBox="0 0 395.5199999999999 92.12349376114081" height="92.12349376114081" width="395.5199999999999"><g id="textblocktransform"><svg viewBox="0 0 395.5199999999999 92.12349376114081" height="92.12349376114081" width="395.5199999999999" id="textblock"><g><svg viewBox="0 0 395.5199999999999 92.12349376114081" height="92.12349376114081" width="395.5199999999999"><g transform="matrix(1,0,0,1,0,0)"><svg width="395.5199999999999" viewBox="5.2 -38.7 168.29000000000002 39.2" height="92.12349376114081" data-palette-color="#ffffff"><path d="M9.9 0L5.2 0 5.2-37.3 5.25-37.3 24.2-10.4 22.15-10.8 41.05-37.3 41.15-37.3 41.15 0 36.35 0 36.35-26.3 36.65-23.85 23-4.55 22.9-4.55 9.05-23.85 9.9-26.1 9.9 0ZM50.4 0L50.4-20.7 55.05-20.7 55.05 0 50.4 0ZM50.05-28.2L50.05-28.2Q50.05-29.3 50.92-30.05 51.8-30.8 52.85-30.8L52.85-30.8Q53.9-30.8 54.72-30.05 55.55-29.3 55.55-28.2L55.55-28.2Q55.55-27.05 54.72-26.33 53.9-25.6 52.85-25.6L52.85-25.6Q51.8-25.6 50.92-26.35 50.05-27.1 50.05-28.2ZM77.5-4.85L79.9-1.9Q78.5-0.8 76.55-0.15 74.6 0.5 72.65 0.5L72.65 0.5Q69.25 0.5 66.7-0.85 64.15-2.2 62.72-4.63 61.3-7.05 61.3-10.35L61.3-10.35Q61.3-13.65 62.82-16.1 64.35-18.55 66.82-19.88 69.3-21.2 72.15-21.2L72.15-21.2Q74.65-21.2 76.62-20.5 78.6-19.8 80-18.6L80-18.6 77.7-15.6Q76.8-16.3 75.5-16.85 74.2-17.4 72.55-17.4L72.55-17.4Q70.75-17.4 69.22-16.48 67.7-15.55 66.82-13.95 65.95-12.35 65.95-10.35L65.95-10.35Q65.95-8.45 66.85-6.83 67.75-5.2 69.35-4.28 70.95-3.35 73-3.35L73-3.35Q74.35-3.35 75.47-3.75 76.6-4.15 77.5-4.85L77.5-4.85ZM90.54 0L85.89 0 85.89-38.7 90.44-38.7 90.44-15.9 90.34-16.75Q91.39-18.8 93.57-20.15 95.74-21.5 98.69-21.5L98.69-21.5Q101.64-21.5 103.52-19.78 105.39-18.05 105.44-15.3L105.44-15.3 105.44 0 100.74 0 100.74-13.65Q100.69-15.35 99.77-16.43 98.84-17.5 96.89-17.5L96.89-17.5Q95.09-17.5 93.64-16.48 92.19-15.45 91.37-13.7 90.54-11.95 90.54-9.7L90.54-9.7 90.54 0ZM122.14 0.5L122.14 0.5Q119.24 0.5 116.87-0.75 114.49-2 113.12-4.42 111.74-6.85 111.74-10.35L111.74-10.35Q111.74-13.8 113.19-16.32 114.64-18.85 117.07-20.2 119.49-21.55 122.39-21.55L122.39-21.55Q125.29-21.55 127.29-20.23 129.29-18.9 130.34-17.1L130.34-17.1 130.04-16.3 130.49-20.7 134.79-20.7 134.79 0 130.14 0 130.14-5.4 130.64-4.2Q130.44-3.7 129.77-2.93 129.09-2.15 127.97-1.35 126.84-0.55 125.39-0.03 123.94 0.5 122.14 0.5ZM123.39-3.35L123.39-3.35Q125.14-3.35 126.54-4 127.94-4.65 128.87-5.83 129.79-7 130.14-8.65L130.14-8.65 130.14-12.7Q129.74-14.2 128.74-15.33 127.74-16.45 126.34-17.07 124.94-17.7 123.24-17.7L123.24-17.7Q121.39-17.7 119.84-16.8 118.29-15.9 117.37-14.3 116.44-12.7 116.44-10.55L116.44-10.55Q116.44-8.55 117.39-6.9 118.34-5.25 119.94-4.3 121.54-3.35 123.39-3.35ZM152.44 0.5L152.44 0.5Q148.89 0.5 146.34-0.93 143.79-2.35 142.41-4.83 141.04-7.3 141.04-10.5L141.04-10.5Q141.04-13.55 142.59-16.05 144.14-18.55 146.74-20.05 149.34-21.55 152.54-21.55L152.54-21.55Q156.64-21.55 159.34-19.15 162.04-16.75 162.99-12.55L162.99-12.55 145.94-6.55 144.84-9.3 158.84-14.4 157.84-13.75Q157.24-15.4 155.84-16.63 154.44-17.85 152.19-17.85L152.19-17.85Q150.29-17.85 148.79-16.93 147.29-16 146.44-14.4 145.59-12.8 145.59-10.75L145.59-10.75Q145.59-8.6 146.49-6.98 147.39-5.35 148.96-4.42 150.54-3.5 152.54-3.5L152.54-3.5Q153.89-3.5 155.16-4 156.44-4.5 157.54-5.3L157.54-5.3 159.69-1.85Q158.14-0.8 156.21-0.15 154.29 0.5 152.44 0.5ZM168.84 0L168.84-38.7 173.49-38.7 173.49 0 168.84 0Z" opacity="1" transform="matrix(1,0,0,1,0,0)" fill="#ffffff" class="wordmark-text-0" data-fill-palette-color="primary" id="text-0"></path></svg></g></svg></g></svg></g></svg></g><g><svg viewBox="0 0 127.3131549971537 127.31466837789661" height="127.31466837789661" width="127.3131549971537"><g><svg xmlns="http://www.w3.org/2000/svg" xmlns:xlink="http://www.w3.org/1999/xlink" version="1.1" x="0" y="0" viewBox="7.938 7.938 84.125 84.12599999999999" enable-background="new 0 0 100 100" xml:space="preserve" height="127.31466837789661" width="127.3131549971537" class="icon-icon-0" data-fill-palette-color="accent" id="icon-0"><path fill-rule="evenodd" clip-rule="evenodd" d="M92.062 36.715v-5.297H81.92c0-0.705-0.28-1.381-0.778-1.879L70.461 18.857c-0.499-0.499-1.175-0.779-1.88-0.779V7.938h-5.296v10.141h-5.296V7.938h-5.298v10.141h-5.383V7.938h-5.298v10.141h-5.295V7.938h-5.297v10.141c-0.705 0-1.381 0.28-1.88 0.778L18.857 29.538c-0.499 0.499-0.778 1.175-0.778 1.88H7.938v5.297h10.141v5.297H7.938v5.296h10.141v5.385H7.938v5.296h10.141v5.298H7.938v5.295h10.141c0 0.705 0.28 1.381 0.778 1.88l10.682 10.682c0.499 0.498 1.175 0.778 1.88 0.778v10.142h5.297V81.921h5.295v10.142h5.298V81.921h5.383v10.142h5.298V81.921h5.296v10.142h5.296V81.921c0.705 0 1.381-0.28 1.88-0.778l10.681-10.682c0.498-0.499 0.778-1.175 0.778-1.88h10.142v-5.295H81.92v-5.298h10.142v-5.296H81.92v-5.385h10.142v-5.296H81.92v-5.297H92.062zM62.533 61.215c0 0.729-0.591 1.32-1.32 1.32H38.787c-0.729 0-1.32-0.591-1.32-1.32v-22.43c0-0.729 0.591-1.32 1.32-1.32h22.426c0.729 0 1.32 0.591 1.32 1.32V61.215z" fill="#ffffff" data-fill-palette-color="accent"></path></svg></g></svg></g></svg></g><defs></defs></svg><rect width="395.52" height="92.46644633712661" fill="none" stroke="none" visibility="hidden"></rect></g></svg></g></svg>